<svg width="25" height="21" viewBox="0 0 25 21" fill="none" xmlns="http://www.w3.org/2000/svg">
<path d="M22.4893 6.62598C21.9333 6.62598 21.4753 6.78776 21.1152 7.11133C20.7552 7.43034 20.5228 7.89518 20.418 8.50586H23.1729V9.70898H20.3154L20.3018 9.94824V10.2695L20.3154 10.4951H22.7422V11.7119H20.4316C20.6641 12.8193 21.3955 13.373 22.626 13.373C23.2777 13.373 23.9043 13.2432 24.5059 12.9834V14.7334C23.9772 15.0023 23.3096 15.1367 22.5029 15.1367C21.3864 15.1367 20.4681 14.8337 19.748 14.2275C19.028 13.6214 18.5745 12.7829 18.3877 11.7119H17.4512V10.4951H18.2578C18.2396 10.3903 18.2305 10.249 18.2305 10.0713L18.2441 9.70898H17.4512V8.50586H18.3604C18.529 7.40299 18.9824 6.53255 19.7207 5.89453C20.459 5.25195 21.3818 4.93066 22.4893 4.93066C23.346 4.93066 24.1481 5.11751 24.8955 5.49121L24.2256 7.07715C23.9111 6.93587 23.6172 6.8265 23.3438 6.74902C23.0703 6.66699 22.7855 6.62598 22.4893 6.62598Z" fill="#F68521"/>
<path d="M0 19.312C-7.8529e-08 19.7595 0.177705 20.1887 0.49405 20.5052C0.810395 20.8218 1.23949 20.9997 1.687 21H14.062C14.5093 20.9997 14.9383 20.8219 15.2546 20.5056C15.5709 20.1893 15.7487 19.7603 15.749 19.313V9.75H0V19.312ZM11.25 12.422C11.2503 12.3103 11.2947 12.2033 11.3735 12.1242C11.4524 12.0452 11.5593 12.0005 11.671 12H13.077C13.1888 12.0003 13.296 12.0448 13.3751 12.1239C13.4542 12.203 13.4987 12.3102 13.499 12.422V13.828C13.4987 13.9398 13.4542 14.047 13.3751 14.1261C13.296 14.2052 13.1888 14.2497 13.077 14.25H11.671C11.5592 14.2497 11.452 14.2052 11.3729 14.1261C11.2938 14.047 11.2493 13.9398 11.249 13.828L11.25 12.422ZM11.25 16.922C11.2503 16.8102 11.2948 16.703 11.3739 16.6239C11.453 16.5448 11.5602 16.5003 11.672 16.5H13.078C13.1898 16.5003 13.297 16.5448 13.3761 16.6239C13.4552 16.703 13.4997 16.8102 13.5 16.922V18.328C13.4997 18.4398 13.4552 18.547 13.3761 18.6261C13.297 18.7052 13.1898 18.7497 13.078 18.75H11.671C11.5592 18.7497 11.452 18.7052 11.3729 18.6261C11.2938 18.547 11.2493 18.4398 11.249 18.328L11.25 16.922ZM6.75 12.422C6.75026 12.3102 6.79481 12.203 6.87389 12.1239C6.95298 12.0448 7.06016 12.0003 7.172 12H8.578C8.68967 12.0003 8.7967 12.0447 8.87576 12.1235C8.95481 12.2024 8.99947 12.3093 9 12.421V13.827C8.99974 13.9388 8.95519 14.046 8.87611 14.1251C8.79702 14.2042 8.68984 14.2487 8.578 14.249H7.172C7.06016 14.2487 6.95298 14.2042 6.87389 14.1251C6.79481 14.046 6.75026 13.9388 6.75 13.827V12.422ZM6.75 16.922C6.75026 16.8102 6.79481 16.703 6.87389 16.6239C6.95298 16.5448 7.06016 16.5003 7.172 16.5H8.578C8.68967 16.5003 8.7967 16.5447 8.87576 16.6235C8.95481 16.7024 8.99947 16.8093 9 16.921V18.327C8.99974 18.4388 8.95519 18.546 8.87611 18.6251C8.79702 18.7042 8.68984 18.7487 8.578 18.749H7.172C7.06016 18.7487 6.95298 18.7042 6.87389 18.6251C6.79481 18.546 6.75026 18.4388 6.75 18.327V16.922ZM2.25 12.422C2.25026 12.3102 2.29481 12.203 2.37389 12.1239C2.45298 12.0448 2.56016 12.0003 2.672 12H4.078C4.18984 12.0003 4.29702 12.0448 4.37611 12.1239C4.45519 12.203 4.49974 12.3102 4.5 12.422V13.828C4.49974 13.9398 4.45519 14.047 4.37611 14.1261C4.29702 14.2052 4.18984 14.2497 4.078 14.25H2.672C2.56016 14.2497 2.45298 14.2052 2.37389 14.1261C2.29481 14.047 2.25026 13.9398 2.25 13.828V12.422ZM2.25 16.922C2.25026 16.8102 2.29481 16.703 2.37389 16.6239C2.45298 16.5448 2.56016 16.5003 2.672 16.5H4.078C4.18984 16.5003 4.29702 16.5448 4.37611 16.6239C4.45519 16.703 4.49974 16.8102 4.5 16.922V18.328C4.49974 18.4398 4.45519 18.547 4.37611 18.6261C4.29702 18.7052 4.18984 18.7497 4.078 18.75H2.672C2.56016 18.7497 2.45298 18.7052 2.37389 18.6261C2.29481 18.547 2.25026 18.4398 2.25 18.328V16.922ZM14.062 5.25H12.374V3.562C12.3735 3.41311 12.3141 3.27047 12.2088 3.16519C12.1035 3.05991 11.9609 3.00053 11.812 3H10.687C10.5381 3.00053 10.3955 3.05991 10.2902 3.16519C10.1849 3.27047 10.1255 3.41311 10.125 3.562V5.25H5.625V3.562C5.62447 3.41294 5.56495 3.27015 5.45946 3.16484C5.35396 3.05953 5.21106 3.00026 5.062 3H3.937C3.78811 3.00053 3.64547 3.05991 3.54019 3.16519C3.43491 3.27047 3.37553 3.41311 3.375 3.562V5.25H1.687C1.23966 5.25026 0.81072 5.42809 0.494403 5.7444C0.178087 6.06072 0.000264933 6.48966 0 6.937L0 8.625H15.749V6.937C15.7487 6.48966 15.5709 6.06072 15.2546 5.7444C14.9383 5.42809 14.5093 5.25026 14.062 5.25Z" fill="#F68521"/>
</svg>
