<svg width="16" height="18" viewBox="0 0 16 18" fill="none" xmlns="http://www.w3.org/2000/svg">
<path d="M0 16.312C-7.8529e-08 16.7595 0.177705 17.1887 0.49405 17.5052C0.810395 17.8218 1.23949 17.9997 1.687 18H14.062C14.5093 17.9997 14.9383 17.8219 15.2546 17.5056C15.5709 17.1893 15.7487 16.7603 15.749 16.313V6.75H0V16.312ZM11.25 9.422C11.2503 9.31033 11.2947 9.2033 11.3735 9.12424C11.4524 9.04519 11.5593 9.00053 11.671 9H13.077C13.1888 9.00026 13.296 9.04481 13.3751 9.12389C13.4542 9.20298 13.4987 9.31016 13.499 9.422V10.828C13.4987 10.9398 13.4542 11.047 13.3751 11.1261C13.296 11.2052 13.1888 11.2497 13.077 11.25H11.671C11.5592 11.2497 11.452 11.2052 11.3729 11.1261C11.2938 11.047 11.2493 10.9398 11.249 10.828L11.25 9.422ZM11.25 13.922C11.2503 13.8102 11.2948 13.703 11.3739 13.6239C11.453 13.5448 11.5602 13.5003 11.672 13.5H13.078C13.1898 13.5003 13.297 13.5448 13.3761 13.6239C13.4552 13.703 13.4997 13.8102 13.5 13.922V15.328C13.4997 15.4398 13.4552 15.547 13.3761 15.6261C13.297 15.7052 13.1898 15.7497 13.078 15.75H11.671C11.5592 15.7497 11.452 15.7052 11.3729 15.6261C11.2938 15.547 11.2493 15.4398 11.249 15.328L11.25 13.922ZM6.75 9.422C6.75026 9.31016 6.79481 9.20298 6.87389 9.12389C6.95298 9.04481 7.06016 9.00026 7.172 9H8.578C8.68967 9.00026 8.7967 9.04467 8.87576 9.12354C8.95481 9.2024 8.99947 9.30933 9 9.421V10.827C8.99974 10.9388 8.95519 11.046 8.87611 11.1251C8.79702 11.2042 8.68984 11.2487 8.578 11.249H7.172C7.06016 11.2487 6.95298 11.2042 6.87389 11.1251C6.79481 11.046 6.75026 10.9388 6.75 10.827V9.422ZM6.75 13.922C6.75026 13.8102 6.79481 13.703 6.87389 13.6239C6.95298 13.5448 7.06016 13.5003 7.172 13.5H8.578C8.68967 13.5003 8.7967 13.5447 8.87576 13.6235C8.95481 13.7024 8.99947 13.8093 9 13.921V15.327C8.99974 15.4388 8.95519 15.546 8.87611 15.6251C8.79702 15.7042 8.68984 15.7487 8.578 15.749H7.172C7.06016 15.7487 6.95298 15.7042 6.87389 15.6251C6.79481 15.546 6.75026 15.4388 6.75 15.327V13.922ZM2.25 9.422C2.25026 9.31016 2.29481 9.20298 2.37389 9.12389C2.45298 9.04481 2.56016 9.00026 2.672 9H4.078C4.18984 9.00026 4.29702 9.04481 4.37611 9.12389C4.45519 9.20298 4.49974 9.31016 4.5 9.422V10.828C4.49974 10.9398 4.45519 11.047 4.37611 11.1261C4.29702 11.2052 4.18984 11.2497 4.078 11.25H2.672C2.56016 11.2497 2.45298 11.2052 2.37389 11.1261C2.29481 11.047 2.25026 10.9398 2.25 10.828V9.422ZM2.25 13.922C2.25026 13.8102 2.29481 13.703 2.37389 13.6239C2.45298 13.5448 2.56016 13.5003 2.672 13.5H4.078C4.18984 13.5003 4.29702 13.5448 4.37611 13.6239C4.45519 13.703 4.49974 13.8102 4.5 13.922V15.328C4.49974 15.4398 4.45519 15.547 4.37611 15.6261C4.29702 15.7052 4.18984 15.7497 4.078 15.75H2.672C2.56016 15.7497 2.45298 15.7052 2.37389 15.6261C2.29481 15.547 2.25026 15.4398 2.25 15.328V13.922ZM14.062 2.25H12.374V0.562C12.3735 0.41311 12.3141 0.27047 12.2088 0.165188C12.1035 0.0599068 11.9609 0.000527047 11.812 0L10.687 0C10.5381 0.000527047 10.3955 0.0599068 10.2902 0.165188C10.1849 0.27047 10.1255 0.41311 10.125 0.562V2.25H5.625V0.562C5.62447 0.412938 5.56495 0.270146 5.45946 0.164837C5.35396 0.0595267 5.21106 0.00026336 5.062 0L3.937 0C3.78811 0.000527047 3.64547 0.0599068 3.54019 0.165188C3.43491 0.27047 3.37553 0.41311 3.375 0.562V2.25H1.687C1.23966 2.25026 0.81072 2.42809 0.494403 2.7444C0.178087 3.06072 0.000264933 3.48966 0 3.937L0 5.625H15.749V3.937C15.7487 3.48966 15.5709 3.06072 15.2546 2.7444C14.9383 2.42809 14.5093 2.25026 14.062 2.25Z" fill="#F68521"/>
</svg>
