<svg width="28" height="24" viewBox="0 0 28 24" fill="none" xmlns="http://www.w3.org/2000/svg">
<path d="M15.4287 19.9999C13.5722 19.9999 11.7917 19.2624 10.479 17.9496C9.16621 16.6369 8.42871 14.8564 8.42871 12.9999C8.42871 11.1434 9.16621 9.36289 10.479 8.05013C11.7917 6.73738 13.5722 5.99988 15.4287 5.99988C17.2852 5.99988 19.0657 6.73738 20.3785 8.05013C21.6912 9.36289 22.4287 11.1434 22.4287 12.9999C22.4287 14.8564 21.6912 16.6369 20.3785 17.9496C19.0657 19.2624 17.2852 19.9999 15.4287 19.9999ZM22.4587 7.38988L23.8787 5.96988C23.4287 5.45988 22.9787 4.99988 22.4687 4.55988L21.0487 5.99988C19.4987 4.73988 17.5487 3.99988 15.4287 3.99988C13.0418 3.99988 10.7526 4.94809 9.06475 6.63592C7.37692 8.32374 6.42871 10.6129 6.42871 12.9999C6.42871 15.3868 7.37692 17.676 9.06475 19.3638C10.7526 21.0517 13.0418 21.9999 15.4287 21.9999C20.4287 21.9999 24.4287 17.9699 24.4287 12.9999C24.4287 10.8799 23.6887 8.92988 22.4587 7.38988ZM14.4287 13.9999H16.4287V7.99988H14.4287V13.9999ZM18.4287 0.999878H12.4287V2.99988H18.4287V0.999878Z" fill="#F15D28"/>
<rect x="2.74268" y="15.0854" width="2.74286" height="2.05714" fill="#F15D28"/>
<rect x="1.37158" y="8.22827" width="4.11429" height="2.05714" fill="#F15D28"/>
<rect y="11.6569" width="4.8" height="2.05714" fill="#F15D28"/>
</svg>
