<svg width="49" height="68" viewBox="0 0 49 68" fill="none" xmlns="http://www.w3.org/2000/svg">
<g clip-path="url(#clip0_2078_4)">
<path d="M30.7945 10.9916L28.9613 10.6825C24.4157 9.91462 21.3564 5.53946 22.1314 1.01073C22.1729 0.768911 22.3091 0.553397 22.51 0.41156C22.711 0.269722 22.9603 0.21317 23.2032 0.254336L25.0364 0.565339C29.582 1.33325 32.6413 5.7084 31.8663 10.2352C31.846 10.3551 31.8022 10.4697 31.7373 10.5727C31.6724 10.6756 31.5877 10.7648 31.4881 10.835C31.3885 10.9053 31.276 10.9553 31.157 10.9822C31.038 11.0091 30.9148 11.0123 30.7945 10.9916Z" fill="#3E7739"/>
<path d="M26.9989 49.4869C37.8221 49.4869 46.596 40.7491 46.596 29.9705C46.596 19.1919 37.8221 10.4541 26.9989 10.4541C16.1757 10.4541 7.40176 19.1919 7.40176 29.9705C7.40176 40.7491 16.1757 49.4869 26.9989 49.4869Z" fill="url(#paint0_radial_2078_4)"/>
<path d="M33.0827 48.5213C33.5646 48.3639 34.0465 48.1911 34.5015 47.9991C29.7056 49.1591 24.6467 48.4743 20.3357 46.0815C16.0247 43.6886 12.779 39.764 11.2471 35.0918C9.71526 30.4195 10.01 25.3436 12.0724 20.8783C14.1348 16.4131 17.8131 12.8872 22.3723 11.0051C21.8865 11.1242 21.4014 11.2617 20.9169 11.4179C16.0064 13.0487 11.9432 16.5481 9.61444 21.152C7.28573 25.756 6.88066 31.0905 8.48768 35.9909C10.0947 40.8912 13.5833 44.9593 18.1917 47.307C22.8002 49.6547 28.1541 50.0912 33.0846 48.5213H33.0827Z" fill="#FEBB12"/>
<path d="M40.2422 38.1699C40.5563 38.1159 40.8782 38.129 41.1868 38.2083C41.4832 38.288 41.7636 38.4179 42.0157 38.5922C42.2683 38.7684 42.4837 38.9921 42.65 39.2507C42.8275 39.5201 42.9464 39.8235 42.9989 40.1415C43.0475 40.4577 43.0321 40.7805 42.9536 41.0907C42.8752 41.4009 42.7352 41.6924 42.542 41.948C39.6671 45.1233 36.1523 47.0527 31.9974 47.7361C27.0676 48.5462 22.5799 47.507 18.5343 44.6184C14.4887 41.7298 12.0591 37.8314 11.2456 32.9232C10.4347 28.0303 11.4795 23.5688 14.3801 19.5385C17.2806 15.5083 21.1939 13.081 26.1198 12.2568C30.3338 11.5631 34.3698 12.3202 38.2278 14.5279C38.4742 14.7046 38.6808 14.9307 38.8345 15.1915C38.9882 15.4523 39.0856 15.7422 39.1203 16.0426C39.1765 16.3609 39.1687 16.6872 39.0972 17.0025C39.0226 17.2996 38.8917 17.5798 38.7116 17.828C38.5306 18.078 38.3012 18.2895 38.0369 18.45C37.7631 18.6182 37.4584 18.7304 37.1406 18.7802C36.5324 18.8681 35.9133 18.7256 35.4056 18.3809C34.1392 17.6828 32.7644 17.2007 31.3381 16.9545C29.8664 16.7039 28.3626 16.7039 26.8909 16.9545C23.2694 17.5496 20.3862 19.3369 18.2413 22.3164C16.1208 25.2601 15.36 28.5358 15.9589 32.1437C16.5577 35.7516 18.3357 38.6178 21.2928 40.7424C24.2667 42.8657 27.5727 43.6284 31.2109 43.0308C34.1995 42.5799 36.9312 41.0898 38.9218 38.8245C39.287 38.4807 39.7466 38.2528 40.2422 38.1699Z" fill="url(#paint1_linear_2078_4)"/>
<path d="M35.1878 34.3034C35.3718 34.2474 35.5657 34.2317 35.7564 34.2573C35.9396 34.2813 36.1171 34.3372 36.2808 34.4224C36.4453 34.5086 36.5908 34.6268 36.7087 34.7699C36.834 34.9184 36.926 35.0919 36.9786 35.2786C37.0315 35.464 37.0464 35.6581 37.0226 35.8494C36.9987 36.0406 36.9366 36.2252 36.8398 36.3921C35.4313 38.4448 33.3468 39.9428 30.9468 40.6271C29.5737 41.0295 28.1344 41.1581 26.7114 41.0056C25.2883 40.853 23.9095 40.4224 22.6538 39.7383C21.3981 39.0542 20.2903 38.1301 19.3939 37.0189C18.4975 35.9078 17.83 34.6314 17.4297 33.2629C16.6207 30.5015 16.945 27.5333 18.3314 25.0098C19.7178 22.4863 22.053 20.6138 24.8244 19.8033C27.2983 19.0815 29.7715 19.2409 32.2441 20.2814C32.4045 20.3699 32.5445 20.4908 32.6554 20.6362C32.7662 20.7816 32.8454 20.9485 32.888 21.1261C32.9458 21.3122 32.9649 21.5082 32.9439 21.702C32.9235 21.8859 32.8668 22.064 32.7771 22.2261C32.6875 22.3881 32.5666 22.531 32.4215 22.6465C32.2689 22.7659 32.0949 22.8551 31.9087 22.9095C31.5511 23.0064 31.1699 22.966 30.8408 22.7963C30.0304 22.4701 29.171 22.2813 28.2981 22.2376C27.398 22.1949 26.4972 22.3046 25.634 22.5621C24.6235 22.8552 23.6811 23.3442 22.8608 24.0009C22.0405 24.6576 21.3584 25.4691 20.8537 26.3889C20.349 27.3087 20.0317 28.3187 19.9198 29.3609C19.8079 30.4031 19.9037 31.4571 20.2017 32.4623C20.6262 33.9046 21.4511 35.1981 22.5815 36.1938C23.7119 37.1895 25.1018 37.8469 26.5911 38.0903C28.0803 38.3336 29.6082 38.1531 30.9989 37.5694C32.3896 36.9856 33.5864 36.0225 34.4514 34.791C34.643 34.5595 34.8993 34.3898 35.1878 34.3034Z" fill="white"/>
<path d="M1.74586 53.6183C3.98779 51.0804 10.8466 52.0268 14.4476 49.6847C15.2186 49.1875 15.5406 48.6 15.3921 50.1531C15.0875 52.7871 11.6986 53.841 9.47791 53.9005C8.77237 55.2828 6.58634 65.5842 8.40418 66.1659C8.64514 66.285 8.89767 66.2274 8.93815 66.3944C8.969 67.1297 6.07936 68.1222 5.48562 65.2214C5.12707 63.1673 5.29285 55.2386 7.58683 54.2346C5.67454 54.2576 3.92418 54.4726 3.2996 55.3864C2.80996 56.1716 3.62731 57.4655 4.81671 57.3062C5.47984 57.1872 5.89815 56.9222 5.85382 57.1872C5.79213 57.6076 4.31165 59.2605 2.7155 58.4849C0.91502 57.6997 0.340562 55.254 1.74586 53.6183Z" fill="#255296"/>
<path d="M13.4625 63.8198C11.9203 63.7564 11.8085 62.067 11.9068 60.8269C11.9594 60.2181 12.0482 59.6129 12.1728 59.0146C11.8599 59.1612 11.5305 59.2701 11.1916 59.339C10.6596 59.4101 10.1256 59.2526 9.94053 58.694C9.82872 58.2966 9.76318 57.4116 10.0292 56.9662C10.3531 56.3788 11.1858 56.803 11.2379 57.1255C11.4133 58.0221 10.0138 59.0895 12.5873 56.6168C12.8074 56.3843 13.0865 56.2152 13.395 56.1273C13.6462 56.0878 13.9033 56.1372 14.1217 56.267C14.34 56.3968 14.5058 56.5987 14.5902 56.8376C14.8041 57.6112 14.0832 60.2663 14.0832 61.2204C15.1781 60.2951 18.2991 56.97 18.9025 56.5611C20.4331 56.4171 15.581 63.8563 13.4625 63.8198Z" fill="#255296"/>
<path d="M26.5709 59.5082C26.0254 60.3605 25.3333 61.3358 24.3116 61.7485C23.608 62.0019 22.9314 61.6833 22.5208 61.0728C22.1148 61.5028 21.6011 61.8176 21.0326 61.9847C20.6379 62.0588 20.2296 62.0002 19.8719 61.8181C19.5143 61.636 19.2275 61.3408 19.0567 60.9787C18.2856 59.2509 19.3941 54.486 22.2818 54.9967C22.4215 55.0235 22.5569 55.0687 22.6847 55.1311C22.7678 54.6922 22.9201 54.2691 23.1357 53.8775C23.7526 53.0289 25.0885 53.8775 25.235 54.7318C25.2437 54.9025 25.2437 55.0736 25.235 55.2443C25.0769 56.5363 24.5854 57.765 24.4466 59.2106C24.4466 59.2259 24.4369 59.2471 24.4466 59.2643C25.6822 58.1816 26.5478 56.7245 27.6948 55.4152C28.3078 54.7068 28.8514 54.1712 29.0596 54.2845C29.6977 54.8565 26.9275 58.9841 26.5709 59.5082ZM22.2394 56.7034C22.4495 56.089 22.5709 55.5515 22.301 55.611C21.0326 56.0295 20.5661 57.9051 20.5661 59.1242C20.5585 59.3442 20.5865 59.5639 20.649 59.775H20.6663C21.3622 58.9399 21.8615 57.8149 22.2394 56.7034Z" fill="#255296"/>
<path d="M35.7082 51.8828C35.4441 53.553 34.3974 58.5329 32.2538 59.4563C31.0451 59.8979 30.1699 58.7402 30.0408 58.4177C29.742 57.6748 29.0634 54.6339 29.3063 53.1806C29.4258 52.4818 30.4629 51.5507 30.941 53.1806C31.209 54.2499 31.3709 56.0602 31.7699 57.0873C31.8817 56.8838 31.9858 56.7187 32.1015 56.5325C33.0653 54.9833 33.767 53.2823 34.8755 51.5046C35.7371 50.1243 35.9126 50.4929 35.7082 51.8828Z" fill="#255296"/>
<path d="M43.9511 54.5724C43.0972 55.6186 42.1661 56.5613 41.0923 57.2005C39.209 58.17 37.3275 57.5653 37.0673 55.0293C36.9169 52.8023 37.9849 50.8576 39.6523 50.0974C41.2755 49.4542 43.315 49.7019 42.4841 52.1055C41.8268 53.4608 40.6798 54.2403 39.1299 54.2172C39.1421 54.3967 39.1892 54.5721 39.2687 54.7336C40.1863 56.4461 44.2345 52.1611 45.5222 50.466C45.56 50.4128 45.6138 50.373 45.6759 50.3523C45.7379 50.3316 45.8049 50.3311 45.8673 50.3508C46.3608 51.0073 44.3482 54.0195 43.9511 54.5724ZM39.1608 53.816C39.5212 53.4666 40.2808 52.8561 40.5333 52.5604C42.7926 49.9476 39.3709 51.7714 39.1608 53.816Z" fill="#255296"/>
<path d="M48.0109 56.8071C48.0109 56.9818 48.0359 57.1373 47.9935 57.191C47.529 57.4041 46.8967 56.8282 46.4784 56.2542C45.7805 55.3212 45.6707 54.1808 45.7882 53.0213C46.0851 49.8248 46.8581 46.6227 47.128 43.3264C47.1743 42.8388 47.6446 43.2592 47.7969 43.4531C48.3193 44.1615 48.5545 45.7684 48.5873 46.1408C48.9246 49.6137 47.5829 52.7371 48.0109 56.8071Z" fill="#255296"/>
</g>
<defs>
<radialGradient id="paint0_radial_2078_4" cx="0" cy="0" r="1" gradientUnits="userSpaceOnUse" gradientTransform="translate(20.4273 11.5253) scale(63.601 63.339)">
<stop stop-color="#FDD900"/>
<stop offset="0.52" stop-color="#F78F1F"/>
<stop offset="1" stop-color="#FDD900"/>
</radialGradient>
<linearGradient id="paint1_linear_2078_4" x1="11.0739" y1="27.8781" x2="44.0765" y2="31.8239" gradientUnits="userSpaceOnUse">
<stop stop-color="#F15A29"/>
<stop offset="1" stop-color="#F7941D"/>
</linearGradient>
<clipPath id="clip0_2078_4">
<rect width="48" height="67" fill="white" transform="translate(0.781982 0.210205)"/>
</clipPath>
</defs>
</svg>
